<svg viewBox="0 0 1024 1024" height="1024" width="1024" version="1.1" fill="none" xmlns:xlink="http://www.w3.org/1999/xlink" xmlns="http://www.w3.org/2000/svg"><defs><clipPath id="master_svg0_25_025"><rect rx="0" height="1024" width="1024" y="0" x="0"></rect></clipPath><linearGradient id="master_svg1_25_122" y2="0.6288386804656829" x2="0.17288914048967133" y1="0.8590422868728638" x1="0.860538899898529"><stop stop-opacity="1" stop-color="#60AA5C" offset="0%"></stop><stop stop-opacity="1" stop-color="#62AE5E" offset="21.699999272823334%"></stop><stop stop-opacity="1" stop-color="#69BA65" offset="43.99999976158142%"></stop><stop stop-opacity="1" stop-color="#75CF70" offset="66.39999747276306%"></stop><stop stop-opacity="1" stop-color="#80E37B" offset="82.99999833106995%"></stop></linearGradient><linearGradient id="master_svg2_25_129" y2="0.6955593248248377" x2="0.725714842075829" y1="0.42610877752304077" x1="0.17901401221752167"><stop stop-opacity="1" stop-color="#FFC538" offset="0%"></stop><stop stop-opacity="1" stop-color="#FAD53D" offset="50.80000162124634%"></stop><stop stop-opacity="1" stop-color="#F7E041" offset="100%"></stop></linearGradient><linearGradient id="master_svg3_25_130" y2="0.6361387395445699" x2="0.8676078661716714" y1="0.36528050899505615" x1="0.08765830099582672"><stop stop-opacity="1" stop-color="#C5BAEB" offset="0%"></stop><stop stop-opacity="1" stop-color="#E9E5F6" offset="48.39999973773956%"></stop><stop stop-opacity="1" stop-color="#F2EFFA" offset="100%"></stop></linearGradient><linearGradient id="master_svg4_25_131" y2="0.61658319773918" x2="0.8916157987049834" y1="0.35102173686027527" x1="0.0735231339931488"><stop stop-opacity="1" stop-color="#AB2C37" offset="0%"></stop><stop stop-opacity="1" stop-color="#FF4F5E" offset="61.69999837875366%"></stop><stop stop-opacity="1" stop-color="#FF7A85" offset="100%"></stop></linearGradient></defs><g clip-path="url(#master_svg0_25_025)"><g><g><path style="mix-blend-mode:passthrough" fill-opacity="1" fill="#236568" d="M1023.9601158714295,606.2060103454589L1023.9601158714295,581.002010345459L0.00011587142944335938,736.034010345459L0.00011587142944335938,760.6480103454589L0.02411587142944336,760.644010345459C0.14811587142944335,765.374010345459,2.534115871429443,770.0520103454589,7.2161158714294436,772.7540103454589L355.36611587142943,973.760010345459C370.6551158714294,982.588010345459,389.49411587142947,982.578010345459,404.77411587142944,973.734010345459L684.3181158714294,811.934010345459L734.1721158714295,782.862010345459L1016.8001158714294,619.280010345459C1021.7901158714294,616.390010345459,1024.1701158714295,611.252010345459,1023.9601158714295,606.2060103454589Z"></path></g><g><path style="mix-blend-mode:passthrough" fill-opacity="1" fill="url(#master_svg1_25_122)" d="M1016.7796275901794,569.0879366149902L668.1516275901795,368.01601661499024C652.8656275901794,359.19970661499025,634.0366275901795,359.21416661499023,618.7636275901795,368.05401661499025L339.19962759017943,529.8559366149902L289.3516275901794,558.9339366149902L7.189887590179444,722.5719366149902C-2.4081124098205566,728.1379366149902,-2.394112409820557,742.0019366149902,7.213887590179444,747.5499366149902L355.36562759017943,948.5559366149903C370.65562759017945,957.3819366149902,389.49462759017945,957.3719366149902,404.77362759017944,948.5279366149903L684.3176275901794,786.7299366149903L734.1716275901795,757.6579366149903L1016.7996275901794,594.0759366149903C1026.4096275901795,588.5139366149903,1026.3996275901795,574.6359366149902,1016.7796275901794,569.0879366149902Z"></path></g><g><path style="mix-blend-mode:passthrough" fill-opacity="1" fill="#2F878A" d="M292.07384634017944,557.3459786071777L687.0398463401795,785.1439786071777L730.8698463401795,759.5859786071777L335.89784634017946,531.7819786071777L292.07384634017944,557.3459786071777Z"></path></g><g><path style="mix-blend-mode:passthrough" fill-opacity="1" fill="#DFDAEF" d="M32.53380727767944,695.7859397888184L32.53380727767944,733.6019397888183C32.53780889767944,738.0739397888184,34.75180727767945,742.5439397888183,39.17780727767944,745.0979397888184L359.76980727767943,930.1919397888183C373.84880727767944,938.3199397888184,391.19680727767945,938.3109397888184,405.2678072776794,930.1679397888183L984.9678072776794,593.8099397888184C989.3578072776794,591.2699397888184,991.5618072776795,586.8439397888184,991.5938072776794,582.4079397888183L991.5998072776795,582.4079397888183L991.5998072776795,544.9359397888184L32.53380727767944,695.7859397888184Z"></path></g><g><path style="mix-blend-mode:passthrough" fill-opacity="1" fill="#F2EFFA" d="M984.9498307151795,532.994358001709L663.9198307151794,347.838008001709C649.8448307151795,339.71968800170896,632.5058307151794,339.732658001709,618.4418307151794,347.872008001709L352.8798307151794,502.21635800170895L306.97783071517944,528.992358001709L39.15409071517944,684.292358001709C30.316090715179442,689.4183580017091,30.328090715179442,702.1843580017089,39.17609071517944,707.292358001709L359.76783071517946,892.386358001709C373.84683071517946,900.514358001709,391.19583071517945,900.5053580017089,405.26583071517945,892.362358001709L670.6778307151794,738.758358001709L716.5858307151794,711.986358001709L984.9678307151794,556.004358001709C993.8158307151795,550.882358001709,993.8058307151795,538.102358001709,984.9498307151795,532.994358001709Z"></path></g><g><path style="mix-blend-mode:passthrough" fill-opacity="1" fill="#F2EFFA" d="M984.9497369651795,532.9943721618653L663.9217369651794,347.84002216186525C649.8467369651794,339.7217021618652,632.5077369651794,339.7346421618652,618.4437369651795,347.87402216186524L608.7057369651794,353.53007216186523C560.2967369651794,381.6426721618652,509.75073696517944,405.9021721618652,457.53573696517947,426.08397216186523C411.25673696517947,443.97137216186525,370.17273696517947,473.1223721618652,338.0037369651794,510.8963721618652L321.19573696517944,520.7003721618653C286.26673696517946,520.7003721618653,252.38573696517943,532.6323721618653,225.16373696517945,554.5203721618652L208.98573696517946,567.5283721618653C155.37273696517946,610.6363721618652,98.60423696517944,649.6673721618652,39.15799696517944,684.2923721618652C30.319996965179442,689.4183721618652,30.331996965179442,702.1843721618652,39.17999696517944,707.2923721618652L359.77173696517946,892.3863721618652C373.85073696517946,900.5143721618653,391.19973696517945,900.5053721618652,405.26973696517945,892.3623721618652L670.6817369651794,738.7583721618653L716.5897369651794,711.9863721618652L984.9717369651794,556.0023721618652C993.8157369651794,550.8823721618653,993.8057369651794,538.1023721618652,984.9497369651795,532.9943721618653Z"></path></g><g><path style="mix-blend-mode:passthrough" fill-opacity="1" fill="#838B9B" d="M429.28802134017945,521.8238316345215C425.18001734017946,519.4258316345215,424.63403134017943,513.6938316345215,428.23403134017946,510.5838316345215C455.45807134017946,487.06003163452147,489.01607134017945,465.2039316345215,521.8820713401794,452.5019316345215C566.0184713401794,435.44203163452147,602.6764713401794,419.09403163452146,643.2524713401795,396.76998163452146C648.9044713401795,393.6667136345215,655.7674713401794,393.7410546345215,661.3524713401795,396.9660016345215C666.2804713401795,399.81201163452147,666.1904713401794,406.9440316345215,661.1984713401795,409.68003163452147C619.1404713401794,432.7440316345215,573.4624713401795,454.2259316345215,529.1664713401794,471.34603163452147C499.1622713401795,482.91513163452146,471.31747134017945,499.44683163452146,446.7960713401794,520.2498316345215C441.8859713401794,524.4378316345214,434.86639134017946,525.0698316345215,429.28802134017945,521.8238316345215ZM487.34797134017947,555.1298316345215C483.23997134017947,552.7318316345215,482.69407134017945,546.9998316345215,486.29407134017947,543.8898316345214C513.5180713401794,520.3658316345214,547.0764713401794,498.5098316345215,579.9424713401795,485.8080316345215C624.0784713401795,468.74803163452145,660.7364713401794,452.4000316345215,701.3124713401794,430.0760316345215C706.9644713401794,426.9727316345215,713.8274713401795,427.04713163452146,719.4124713401794,430.27203163452145C724.3404713401794,433.11803163452146,724.2504713401795,440.25003163452146,719.2584713401794,442.9860316345215C677.2004713401794,466.04803163452146,631.5224713401794,487.5320316345215,587.2264713401794,504.6518316345215C557.2224713401795,516.2208316345215,529.3774713401795,532.7528316345215,504.8560713401794,553.5558316345215C499.9459713401794,557.7438316345215,492.92637134017946,558.3758316345215,487.34797134017947,555.1298316345215ZM679.6064713401795,512.1258316345215C673.4104713401795,508.54283163452146,665.9094713401794,508.01883163452146,659.2764713401795,510.70383163452146C652.2074713401794,513.5648316345215,645.1154713401795,516.3688316345215,638.0024713401795,519.1158316345214C605.1364713401795,531.8178316345216,571.5784713401795,553.6738316345215,544.3524713401795,577.1978316345214C540.7724713401794,580.2918316345215,541.2564713401795,585.9778316345215,545.3284713401795,588.3878316345215C550.9154713401795,591.6838316345215,557.9784713401795,591.0718316345215,562.9164713401794,586.8638316345215C587.4374713401794,566.0608316345215,615.2824713401794,549.5288316345215,645.2864713401794,537.9598316345215C656.5664713401794,533.5908316345215,667.7654713401794,529.0158316345214,678.8784713401794,524.2378316345215C684.0124713401794,522.0358316345215,684.4404713401794,514.9178316345215,679.6064713401795,512.1258316345215Z"></path></g><g><path style="mix-blend-mode:passthrough" fill-opacity="1" fill="#DFDAEF" d="M338.01177602767945,510.9240074157715L328.6777860276794,516.3339774157715L321.20177602767944,520.6939674157715L684.8777760276794,730.4460074157714L692.4417760276795,726.0660074157715L701.6857760276794,720.6760074157714L338.01177602767945,510.9240074157715Z"></path></g><g><path style="mix-blend-mode:passthrough" fill-opacity="1" fill="#C5BAEB" d="M684.8779518089294,730.445992767334L684.8779518089294,768.205992767334L701.7419518089295,758.469992767334L701.7419518089295,720.693992767334L684.8779518089294,730.445992767334ZM684.8779518089294,730.529992767334C649.9479518089295,730.529992767334,616.0659518089294,742.461992767334,588.8439518089294,764.349992767334L492.13195180892944,842.111992767334L684.8779518089294,730.529992767334ZM701.7419518089295,720.693992767334C733.9139518089295,682.905692767334,775.0089518089294,653.743992767334,821.2999518089294,635.851992767334L899.7439518089295,605.533992767334L701.7419518089295,720.693992767334Z"></path></g><g><g><path style="mix-blend-mode:passthrough" fill-opacity="1" fill="#838B9B" d="M283.40752737045284,588.3879956970214L267.22952737045284,601.3959956970215C221.92772737045289,639.2979956970215,150.98372737045287,684.7914956970214,127.76776737045289,699.4144956970215C124.30776337045288,701.5914956970215,124.41976337045288,706.6584956970215,127.95976737045288,708.7024956970215C135.64772737045288,713.1404956970215,145.14572737045287,712.8864956970215,152.6437273704529,708.1384956970214C196.7300273704529,680.2134956970215,239.21252737045288,649.8334956970215,279.88952737045287,617.1419956970215L296.06552737045286,604.1339956970215C308.3855273704529,594.2030956970215,322.27652737045287,586.3978956970215,337.1655273704529,581.0399956970215C341.5095273704529,579.4779956970215,342.0375273704529,573.5599956970215,338.0395273704529,571.2519456970215L335.8455273704529,569.9859556970215C328.9575273704529,566.0126916970215,320.5405273704529,565.7388856970215,313.40752737045284,569.2559756970215C302.7365273704529,574.5148856970214,292.67652737045285,580.9306956970215,283.40752737045284,588.3879956970214ZM341.69952737045287,622.1439956970215L325.5215273704529,635.1519956970214C280.2215273704529,673.0534956970215,209.27582737045287,718.5474956970215,186.05982737045287,733.1694956970215C182.59982737045289,735.3474956970215,182.71182737045288,740.4144956970215,186.25182737045287,742.4584956970215C193.93982737045286,746.8954956970215,203.43782737045288,746.6424956970214,210.9358273704529,741.8934956970215C255.02252737045288,713.9694956970214,297.5045273704529,683.5894956970214,338.18152737045284,650.8978956970215L354.3575273704529,637.8899956970215C366.6775273704529,627.9589956970215,380.5685273704529,620.1538956970214,395.4575273704529,614.7959956970215C399.8015273704529,613.2338956970215,400.32952737045287,607.3159956970214,396.3315273704529,605.0078956970215L394.13752737045286,603.7418956970215C387.2495273704529,599.7686956970215,378.8325273704529,599.4947956970215,371.69952737045287,603.0119956970215C361.0285273704529,608.2703956970215,350.9685273704529,614.6862956970215,341.69952737045287,622.1439956970215ZM399.9915273704529,655.8999956970215L383.8135273704529,668.9084956970215C338.5115273704529,706.8094956970215,267.5675273704529,752.3044956970215,244.35152737045289,766.9264956970214C240.89152737045288,769.1044956970215,241.0035273704529,774.1704956970215,244.54352737045286,776.2144956970214C252.23152737045288,780.6524956970215,261.72952737045284,780.3984956970214,269.2275273704529,775.6504956970215C313.3145273704529,747.7254956970214,355.79652737045285,717.3444956970214,396.47352737045287,684.6524956970214L412.64952737045286,671.6444956970215C424.9695273704529,661.7130956970215,438.86052737045287,653.9079956970215,453.7495273704529,648.5499956970215C458.09152737045287,646.9879956970215,458.6195273704529,641.0700956970215,454.6235273704529,638.7619956970215L452.4295273704529,637.4959956970215C445.54152737045285,633.5227956970215,437.1245273704529,633.2488956970215,429.9915273704529,636.7660956970215C419.3205273704529,642.0253956970215,409.2605273704529,648.4418956970214,399.9915273704529,655.8999956970215ZM458.28152737045286,689.6564956970215L442.10352737045287,702.6644956970215C396.80352737045285,740.5654956970214,325.8575273704529,786.0594956970215,302.6415273704529,800.6824956970215C299.18152737045284,802.8594956970214,299.2935273704529,807.9264956970214,302.8335273704529,809.9704956970215C310.5215273704529,814.4084956970215,320.0195273704529,814.1544956970215,327.51752737045285,809.4064956970215C371.60452737045284,781.4814956970215,414.08652737045287,751.1014956970215,454.7635273704529,718.4104956970215L470.9395273704529,705.4024956970215C483.2595273704529,695.4714956970215,497.1505273704529,687.6654956970215,512.0395273704529,682.3084956970215C516.3835273704528,680.7464956970215,516.9115273704529,674.8284956970215,512.9135273704528,672.5204956970215L510.72152737045286,671.2544956970215C503.8335273704529,667.2804956970215,495.41652737045285,667.0064956970215,488.2835273704529,670.5244956970215C477.6125273704529,675.7824956970214,467.55052737045287,682.1984956970215,458.28152737045286,689.6564956970215ZM516.5735273704529,723.4114956970215L500.3955273704529,736.4194956970215C455.0955273704529,774.3214956970214,384.14952737045286,819.8154956970214,360.9335273704529,834.4374956970214C357.47352737045287,836.6154956970215,357.5855273704529,841.6824956970215,361.1255273704529,843.7264956970215C368.8135273704529,848.1644956970215,378.3115273704529,847.9104956970215,385.8095273704529,843.1614956970216C429.8965273704529,815.2374956970215,472.3785273704529,784.8574956970215,513.0555273704529,752.1664956970214L529.2315273704529,739.1584956970215C541.551527370453,729.2274956970215,555.4425273704528,721.4214956970216,570.3315273704529,716.0644956970215C574.6755273704529,714.5024956970215,575.2015273704528,708.5844956970215,571.205527370453,706.2764956970215L569.0115273704529,705.0104956970215C562.1235273704528,701.0364956970215,553.7065273704529,700.7624956970214,546.5735273704529,704.2804956970215C535.9025273704528,709.5384956970215,525.8415273704529,715.9534956970215,516.5735273704529,723.4114956970215Z"></path></g></g><g><path style="mix-blend-mode:passthrough" fill-opacity="1" fill="#EBCBA0" d="M660.4918150901794,388.58996200561523L663.1118150901794,513.3719620056153C663.2658050901795,520.6719620056152,672.2498150901795,524.0439620056152,677.1698150901794,518.6479620056152L766.5938150901794,420.5399620056152L660.4918150901794,388.58996200561523Z"></path></g><g><path style="mix-blend-mode:passthrough" fill-opacity="1" fill="url(#master_svg2_25_129)" d="M770.5275846214295,413.847994720459L838.6035846214295,238.521994720459L729.9218846214294,206.83599472045898L661.9798546214295,381.819994720459C658.9258346214294,388.915994720459,660.4538512214294,397.455994720459,667.3358746214294,406.01999472045895C682.0858846214294,424.377994720459,715.8258846214294,435.893994720459,742.6998846214294,431.743994720459C757.8158846214294,429.411994720459,767.5395846214294,422.61599472045896,770.5275846214295,413.847994720459Z"></path></g><g><path style="mix-blend-mode:passthrough" fill-opacity="1" fill="url(#master_svg3_25_130)" d="M846.3054674339294,240.1320037536621L878.6574674339295,156.8120037536621L755.0138674339295,120.76400375366211L722.8138974339295,203.69600375366213L722.8159074339294,203.69600375366213C719.3419174339294,211.7700037536621,721.0798888339294,221.4840037536621,728.9078874339294,231.2280037536621C745.6879674339294,252.1140037536621,784.0738674339294,265.2160037536621,814.6478674339295,260.4940037536621C831.8434674339294,257.8360037536621,842.9054674339294,250.10600375366212,846.3054674339294,240.1320037536621Z"></path></g><g><path style="mix-blend-mode:passthrough" fill-opacity="1" fill="#F2EFFA" d="M846.6259885276794,178.1300219177246C877.1975885276795,173.40802191772462,888.3795885276794,152.65002191772462,871.5995885276794,131.76402191772462C854.8195885276795,110.88000191772461,816.4339885276795,97.77600191772461,785.8600885276794,102.49800491772461C755.2880185276795,107.2200019177246,744.1060085276795,127.97802191772462,760.8860385276795,148.8640219177246C777.6660885276794,169.7500219177246,816.0520885276794,182.8520219177246,846.6259885276794,178.1300219177246Z"></path></g><g><path style="mix-blend-mode:passthrough" fill-opacity="1" fill="url(#master_svg4_25_131)" d="M871.6115689964295,153.51198080444334L895.4115689964294,92.21398080444337L786.7297689964295,60.52798080444336L763.0618189964295,121.48398080444336L763.0638389964295,121.48398080444336C760.0098189964294,128.57998080444338,761.5378355964294,137.11998080444334,768.4198589964294,145.68398080444337C783.1698689964294,164.04198080444337,816.9098689964294,175.55998080444334,843.7838689964294,171.40798080444335C858.8998689964294,169.07398080444335,868.6235689964294,162.27798080444336,871.6115689964295,153.51198080444334Z"></path></g><g><path style="mix-blend-mode:passthrough" fill-opacity="1" fill="#FF7A85" d="M867.2557955589294,110.95204276733398C894.1282955589295,106.80204276733399,903.9582955589294,88.55404276733398,889.2082955589294,70.19804276733399C874.4577955589294,51.840002767333985,840.7177955589294,40.32400276733399,813.8437955589294,44.474002767333985C786.9717955589294,48.624002767333984,777.1417755589295,66.87004276733398,791.8917755589295,85.22804276733399C806.6417955589294,103.58404276733398,840.3837955589295,115.10204276733398,867.2557955589294,110.95204276733398Z"></path></g><g><path style="mix-blend-mode:passthrough" fill-opacity="1" fill="#565D68" d="M663.1119974339294,513.3720147399903C663.2659874339295,520.6720147399902,672.2499674339294,524.0440147399902,677.1699674339294,518.6480147399902L713.3339674339295,478.97201473999024L713.3439674339295,478.93401473999023C710.9519674339294,481.2660147399902,707.2019674339294,482.9920147399902,702.2819674339295,483.7520147399902C689.1299674339294,485.78401473999025,672.6159674339294,480.1460147399902,665.3980074339295,471.16201473999024C663.0779974339295,468.2740147399902,662.0159850339295,465.39602473999025,662.0579772339295,462.7480125399902L662.0479674339294,462.74401473999023L663.1119974339294,513.3720147399903Z"></path></g></g></g></svg>